<svg id="Capa_1" enable-background="new 0 0 512.001 512.001" height="512" viewBox="0 0 512.001 512.001" width="512" xmlns="http://www.w3.org/2000/svg"><g><path d="m316 91-15 15v45c0 8.291 6.709 15 15 15s15-6.709 15-15v-75z" fill="#47568c"/><path d="m331 151v-75l-15 15v75c8.291 0 15-6.709 15-15z" fill="#29376d"/><path d="m510.169 473.823-181-330c-2.622-4.819-7.896-7.229-13.169-7.229s-10.547 2.41-13.169 7.229l-107.448 196.992 9.113 95.185 111.504 7.401 13.418.89 70.855 51.709h96.727c5.288 0 10.195-2.798 12.905-7.339 2.696-4.555 2.798-10.195.264-14.838z" fill="#8cd96b"/><path d="m400.273 496h96.727c5.288 0 10.195-2.798 12.905-7.339 2.695-4.556 2.798-10.195.264-14.839l-181-330c-2.622-4.819-7.896-7.229-13.169-7.229v306.808l13.418.89z" fill="#59c36a"/><path d="m397.211 61 19.395-19.395c4.292-4.292 5.581-10.737 3.252-16.348-2.315-5.609-7.793-9.257-13.858-9.257h-90c-8.284 0-15 6.714-15 15v75h15 90c6.064 0 11.543-3.647 13.857-9.258 2.329-5.61 1.04-12.056-3.252-16.348z" fill="#ff6c6c"/><path d="m419.857 96.743c2.329-5.61 1.04-12.056-3.252-16.348l-19.394-19.395 19.395-19.395c4.292-4.292 5.581-10.737 3.252-16.348-2.315-5.609-7.793-9.257-13.858-9.257h-90v90h90c6.065 0 11.543-3.647 13.857-9.257z" fill="#e63950"/><path d="m359.418 414.291c-2.542-5.081-7.734-8.291-13.414-8.291h-30.004-81.504l-39.113-65.186-46.522-77.534c-2.739-4.556-7.251-6.592-13.022-7.28-5.317.059-10.225 2.93-12.861 7.559l-121 210c-2.651 4.644-2.637 10.342.044 14.971 2.695 4.629 7.631 7.47 12.978 7.47h301 84.272z" fill="#61729b"/><path d="m359.418 414.291c-2.542-5.081-7.734-8.291-13.414-8.291h-30.004v90h84.272z" fill="#47568c"/></g></svg>